<svg width="68" height="37" viewBox="0 0 68 37" fill="none" xmlns="http://www.w3.org/2000/svg">
<path d="M7.968 32C7.72267 32 7.50933 31.9307 7.328 31.792L4.72 29.408L2.08 25.968C1.96267 25.8187 1.888 25.728 1.856 25.696C1.824 25.6533 1.808 25.5573 1.808 25.408V17.248C1.808 17.0987 1.824 17.0027 1.856 16.96C1.89867 16.9173 1.97333 16.8267 2.08 16.688L4.528 13.52L7.328 10.88C7.44533 10.784 7.536 10.7253 7.6 10.704C7.67467 10.6827 7.79733 10.672 7.968 10.672H11.92C12.1867 10.672 12.32 10.8053 12.32 11.072V13.632C12.32 13.7173 12.3093 13.808 12.288 13.904C12.2773 13.9893 12.224 14.064 12.128 14.128L9.12 16.192L7.152 18.72V23.952L9.152 26.48L12.128 28.528C12.2133 28.5813 12.2667 28.6453 12.288 28.72C12.3093 28.7947 12.32 28.8747 12.32 28.96V31.6C12.32 31.8667 12.1867 32 11.92 32H7.968Z" fill="black"/>
<path d="M25.32 32C25.0533 32 24.92 31.8667 24.92 31.6V11.072C24.92 10.8053 25.0533 10.672 25.32 10.672H29.848C30.1147 10.672 30.248 10.8053 30.248 11.072V31.6C30.248 31.8667 30.1147 32 29.848 32H25.32Z" fill="#D3B820"/>
<path d="M34.4763 32C34.2096 32 34.0763 31.8667 34.0763 31.6V14.8C34.0763 14.5333 34.2096 14.4 34.4763 14.4H43.0363C43.2816 14.4 43.4949 14.4907 43.6763 14.672L46.8763 17.872C47.0576 18.0427 47.1483 18.256 47.1483 18.512V31.6C47.1483 31.8667 47.0149 32 46.7483 32H42.4763C42.2096 32 42.0763 31.8667 42.0763 31.6V19.152C42.0763 18.6507 41.8256 18.4 41.3243 18.4H39.1483V31.6C39.1483 31.8667 39.0149 32 38.7483 32H34.4763ZM54.5688 32C54.3234 32 54.1101 31.9093 53.9288 31.728L51.2568 29.072C51.0861 28.8907 51.0008 28.6773 51.0008 28.432V18.128H50.3288C50.0621 18.128 49.9288 17.9947 49.9288 17.728V14.8C49.9288 14.5333 50.0621 14.4 50.3288 14.4H51.0008V12.4C51.0008 12.1333 51.1341 12 51.4008 12H55.6568C55.9234 12 56.0568 12.1333 56.0568 12.4V14.4H57.6088C57.8754 14.4 58.0087 14.5333 58.0087 14.8V17.728C58.0087 17.9947 57.8754 18.128 57.6088 18.128H56.0568V26.672C56.0568 26.8747 56.1208 27.04 56.2488 27.168L57.8168 28.752C57.9234 28.848 57.9768 29.008 57.9768 29.232V31.6C57.9768 31.8667 57.8434 32 57.5768 32H54.5688ZM60.6488 31.872C60.3821 31.872 60.2488 31.728 60.2488 31.44V26.352C60.2488 26.064 60.3821 25.92 60.6488 25.92H65.7688C66.0354 25.92 66.1688 26.064 66.1688 26.352V31.44C66.1688 31.728 66.0354 31.872 65.7688 31.872H60.6488Z" fill="black"/>
<path d="M14 5V14.3401L23.0964 21L14 5Z" fill="black"/>
<path d="M14 37V27.6599L23.0964 21L14 37Z" fill="black"/>
</svg>
