<svg width="87" height="48" viewBox="0 0 87 48" fill="none" xmlns="http://www.w3.org/2000/svg">
<path d="M7.968 32C7.72267 32 7.50933 31.9307 7.328 31.792L4.72 29.408L2.08 25.968C1.96267 25.8187 1.888 25.728 1.856 25.696C1.824 25.6533 1.808 25.5573 1.808 25.408V17.248C1.808 17.0987 1.824 17.0027 1.856 16.96C1.89867 16.9173 1.97333 16.8267 2.08 16.688L4.528 13.52L7.328 10.88C7.44533 10.784 7.536 10.7253 7.6 10.704C7.67467 10.6827 7.79733 10.672 7.968 10.672H11.92C12.1867 10.672 12.32 10.8053 12.32 11.072V13.632C12.32 13.7173 12.3093 13.808 12.288 13.904C12.2773 13.9893 12.224 14.064 12.128 14.128L9.12 16.192L7.152 18.72V23.952L9.152 26.48L12.128 28.528C12.2133 28.5813 12.2667 28.6453 12.288 28.72C12.3093 28.7947 12.32 28.8747 12.32 28.96V31.6C12.32 31.8667 12.1867 32 11.92 32H7.968Z" fill="white"/>
<path d="M31.7465 32C31.4798 32 31.3465 31.8667 31.3465 31.6V11.072C31.3465 10.8053 31.4798 10.672 31.7465 10.672H36.2745C36.5411 10.672 36.6745 10.8053 36.6745 11.072V31.6C36.6745 31.8667 36.5411 32 36.2745 32H31.7465Z" fill="#D3B820"/>
<path d="M40.9027 32C40.6361 32 40.5027 31.8667 40.5027 31.6V14.8C40.5027 14.5333 40.6361 14.4 40.9027 14.4H49.4627C49.7081 14.4 49.9214 14.4907 50.1027 14.672L53.3027 17.872C53.4841 18.0427 53.5747 18.256 53.5747 18.512V31.6C53.5747 31.8667 53.4414 32 53.1747 32H48.9027C48.6361 32 48.5027 31.8667 48.5027 31.6V19.152C48.5027 18.6507 48.2521 18.4 47.7507 18.4H45.5747V31.6C45.5747 31.8667 45.4414 32 45.1747 32H40.9027ZM60.9952 32C60.7499 32 60.5366 31.9093 60.3552 31.728L57.6832 29.072C57.5126 28.8907 57.4272 28.6773 57.4272 28.432V18.128H56.7552C56.4886 18.128 56.3552 17.9947 56.3552 17.728V14.8C56.3552 14.5333 56.4886 14.4 56.7552 14.4H57.4272V12.4C57.4272 12.1333 57.5606 12 57.8272 12H62.0832C62.3499 12 62.4832 12.1333 62.4832 12.4V14.4H64.0352C64.3019 14.4 64.4352 14.5333 64.4352 14.8V17.728C64.4352 17.9947 64.3019 18.128 64.0352 18.128H62.4832V26.672C62.4832 26.8747 62.5472 27.04 62.6752 27.168L64.2432 28.752C64.3499 28.848 64.4032 29.008 64.4032 29.232V31.6C64.4032 31.8667 64.2699 32 64.0032 32H60.9952ZM67.0752 31.872C66.8086 31.872 66.6752 31.728 66.6752 31.44V26.352C66.6752 26.064 66.8086 25.92 67.0752 25.92H72.1952C72.4619 25.92 72.5952 26.064 72.5952 26.352V31.44C72.5952 31.728 72.4619 31.872 72.1952 31.872H67.0752Z" fill="white"/>
<path d="M15 1V12.9498L26.6381 21.4706L15 1Z" fill="white"/>
<path d="M15 41.9412V29.9913L26.6381 21.4706L15 41.9412Z" fill="white"/>
</svg>
